<?xml version="1.0" encoding="UTF-8"?>
<svg width="200" height="60" viewBox="0 0 200 60" version="1.1" xmlns="http://www.w3.org/2000/svg">
  <g fill="none" fill-rule="evenodd">
    <!-- Triangle elements -->
    <polygon fill="#FFFFFF" points="0,0 20,20 0,20"/>
    <polygon fill="#FFFFFF" points="20,0 0,0 20,20"/>
    
    <!-- Small square in middle -->
    <rect fill="#FFFFFF" x="40" y="8" width="8" height="8"/>
    
    <!-- Text part (union) -->
    <path d="M8,55 L8,30 L0,30 L0,55 L8,55 Z 
             M23,55 L23,30 L15,30 L15,55 L23,55 Z 
             M38,55 L38,30 L30,30 L30,55 L38,55 Z 
             M53,55 L53,30 L45,30 L45,55 L53,55 Z 
             M68,55 L68,30 L60,30 L60,55 L68,55 Z 
             M83,55 L83,30 L75,30 L75,55 L83,55 Z 
             M98,55 L98,30 L90,30 L90,55 L98,55 Z 
             M113,55 L113,30 L105,30 L105,55 L113,55 Z" 
          fill="#FFFFFF"/>
    
    <!-- Orange square -->
    <rect fill="#FF5000" x="125" y="45" width="10" height="10"/>
  </g>
</svg>
